<svg width="24" height="24" viewBox="-4.76837158203125e-7,-4.76837158203125e-7,24,24" fill="#E5E5E5" xmlns="http://www.w3.org/2000/svg"><path fill-rule="evenodd" clip-rule="evenodd" d="M16.8503 0H7.14973C3.20735 0 0 3.20735 0 7.14973V16.8503C0 20.7926 3.20735 24 7.14973 24H16.8503C20.7926 24 24 20.7926 24 16.8503V7.14973C24 3.20735 20.7926 0 16.8503 0ZM21.5856 16.8503C21.5856 19.4655 19.4655 21.5856 16.8503 21.5856H7.14973C4.5345 21.5856 2.4144 19.4655 2.4144 16.8503V7.14973C2.4144 4.53446 4.5345 2.4144 7.14973 2.4144H16.8503C19.4655 2.4144 21.5856 4.53446 21.5856 7.14973V16.8503ZM12.0002 5.79297C8.57754 5.79297 5.79297 8.57754 5.79297 12.0002C5.79297 15.4228 8.57754 18.2074 12.0002 18.2074C15.4229 18.2074 18.2075 15.4229 18.2075 12.0002C18.2075 8.57749 15.4229 5.79297 12.0002 5.79297ZM12.0002 15.7931C9.90547 15.7931 8.20737 14.095 8.20737 12.0002C8.20737 9.90547 9.90551 8.20737 12.0002 8.20737C14.095 8.20737 15.7931 9.90547 15.7931 12.0002C15.7931 14.0949 14.0949 15.7931 12.0002 15.7931ZM19.7067 5.83895C19.7067 6.66041 19.0408 7.32633 18.2193 7.32633C17.3979 7.32633 16.7319 6.66041 16.7319 5.83895C16.7319 5.01749 17.3979 4.35156 18.2193 4.35156C19.0408 4.35156 19.7067 5.01749 19.7067 5.83895Z" fill="#E5E5E5"></path><defs><linearGradient id="paint0_linear_2094_61147" x1="12" y1="25.5" x2="12" y2="-4.5" gradientUnits="userSpaceOnUse"><stop stop-color="#ECAE5B"></stop><stop offset="0.3" stop-color="#FFFFFF"></stop><stop offset="0.6" stop-color="#FFFFFF"></stop><stop offset="1" stop-color="#FFFFFF"></stop></linearGradient></defs></svg>