<svg
width="24" height="24" 
viewBox="4,3.9999992847442627,12,12.000000953674316" fill="#E5E5E5" xmlns="http://www.w3.org/2000/svg"><path d="M5.47499 4.00042C5.28299 3.99577 5.09199 4.02969 4.91325 4.10017C4.73451 4.17065 4.57163 4.27626 4.4342 4.41081C4.29676 4.54535 4.18755 4.70611 4.11298 4.88361C4.03841 5.06111 4 5.25178 4 5.44439C4 5.637 4.03841 5.82766 4.11298 6.00517C4.18755 6.18267 4.29676 6.34342 4.4342 6.47796C4.57163 6.61251 4.73451 6.71813 4.91325 6.78861C5.09199 6.85908 5.28299 6.893 5.47499 6.88835C5.85085 6.87926 6.20826 6.72314 6.47088 6.45333C6.7335 6.18353 6.88051 5.82143 6.88051 5.44439C6.88051 5.06734 6.7335 4.70525 6.47088 4.43544C6.20826 4.16564 5.85085 4.00951 5.47499 4.00042ZM13.0407 7.83363C11.8401 7.83363 11.0416 8.49323 10.7115 9.12005H10.6587V8.01765H8.30188V16H10.7635V12.0609C10.7635 11.0207 10.9696 10.0132 12.2557 10.0132C13.5225 10.0132 13.5392 11.1879 13.5392 12.1139V16H16V11.6147C16 9.46875 15.5442 7.83363 13.0407 7.83363ZM4.27017 8.01765V16H6.75773V8.01765H4.27017Z" fill="#E5E5E5"></path></svg>