<svg width="24" height="24" viewBox="3,4,14.000009536743164,11.469799995422363" fill="#E5E5E5" xmlns="http://www.w3.org/2000/svg"><path fill-rule="evenodd" clip-rule="evenodd" d="M4.43041 5.64343C4.53347 5.46831 4.72416 5.34939 4.93974 5.34939H15.0601C15.2758 5.34939 15.4665 5.46833 15.5695 5.64349L10 9.54214L4.43041 5.64343ZM4.34939 7.23385L9.61309 10.9184C9.8454 11.0811 10.1546 11.0811 10.3869 10.9184L15.6505 7.23393V13.53C15.6505 13.8532 15.3833 14.1204 15.0601 14.1204H4.93974C4.61659 14.1204 4.34939 13.8532 4.34939 13.53V7.23385ZM16.9999 5.94999V13.53C16.9999 14.5984 16.1285 15.4698 15.0601 15.4698H4.93974C3.87134 15.4698 3 14.5984 3 13.53V5.93974C3 5.93789 3 5.93603 3.00001 5.93418C3.00303 4.86832 3.8732 4 4.93974 4H15.0601C16.1222 4 16.9895 4.86096 16.9998 5.92062C17 5.93041 17.0001 5.9402 16.9999 5.94999Z" fill="#E5E5E5"></path></svg>